HIERARCHY
ROOT Hips
{
     OFFSET 1.88212 96.90440 -13.34250
     CHANNELS 6 Xposition Yposition Zposition Zrotation Xrotation Yrotation
     JOINT Spine
     {
          OFFSET 0.00000 11.89050 0.00000
          CHANNELS 3 Zrotation Xrotation Yrotation
          JOINT Spine1
          {
               OFFSET -0.00000 25.65740 0.12766
               CHANNELS 3 Zrotation Xrotation Yrotation
               JOINT HEad
               {
                    OFFSET 0.00000 8.73416 0.01134
                    CHANNELS 3 Zrotation Xrotation Yrotation
                    End Site
                    {
                         OFFSET -0.29000 12.77420 2.51395
                    }
               }
               JOINT LeftShoulder1
               {
                    OFFSET 8.99000 -0.36225 -0.22000
                    CHANNELS 3 Zrotation Xrotation Yrotation
                    JOINT LeftArm
                    {
                         OFFSET 10.28270 -0.00338 0.32212
                         CHANNELS 3 Zrotation Xrotation Yrotation
                         JOINT LeftForeArm
                         {
                              OFFSET 32.76690 0.09914 -1.42434
                              CHANNELS 3 Zrotation Xrotation Yrotation
                              JOINT LeftHand
                              {
                                   OFFSET 27.56430 0.08536 1.02216
                                   CHANNELS 3 Zrotation Xrotation Yrotation
                                   End Site
                                   {
                                        OFFSET 16.74430 -0.60000 1.50291
                                   }
                              }
                         }
                    }
               }
               JOINT RightShoulder
               {
                    OFFSET -8.99000 -0.36225 -0.22000
                    CHANNELS 3 Zrotation Xrotation Yrotation
                    JOINT RightArm
                    {
                         OFFSET -10.28270 -0.00338 0.32212
                         CHANNELS 3 Zrotation Xrotation Yrotation
                         JOINT RightForeArm
                         {
                              OFFSET -32.89710 0.09914 -1.42434
                              CHANNELS 3 Zrotation Xrotation Yrotation
                              JOINT RightHand
                              {
                                   OFFSET -27.49210 0.08536 1.02216
                                   CHANNELS 3 Zrotation Xrotation Yrotation
                                   End Site
                                   {
                                        OFFSET -16.63120 -0.60000 1.50291
                                   }
                              }
                         }
                    }
               }
          }
     }
     JOINT LeftUpLeg
     {
          OFFSET 8.94580 -8.66707 0.10165
          CHANNELS 3 Zrotation Xrotation Yrotation
          JOINT LeftLeg
          {
               OFFSET 0.00000 -44.42270 1.37270
               CHANNELS 3 Zrotation Xrotation Yrotation
               JOINT LeftFoot
               {
                    OFFSET -0.25355 -42.09240 -1.46059
                    CHANNELS 3 Zrotation Xrotation Yrotation
                    JOINT LeftToes
                    {
                         OFFSET -0.04000 -4.41509 8.49910
                         CHANNELS 3 Zrotation Xrotation Yrotation
                         End Site
                         {
                              OFFSET 0.08000 -0.04745 9.77979
                         }
                    }
               }
          }
     }
     JOINT RightUpLeg
     {
          OFFSET -8.94580 -8.66707 0.10165
          CHANNELS 3 Zrotation Xrotation Yrotation
          JOINT RightLeg
          {
               OFFSET 0.00000 -44.42270 1.37270
               CHANNELS 3 Zrotation Xrotation Yrotation
               JOINT RightFoot
               {
                    OFFSET 0.25355 -42.09240 -1.46059
                    CHANNELS 3 Zrotation Xrotation Yrotation
                    JOINT RightToes
                    {
                         OFFSET 0.04000 -4.41509 8.49910
                         CHANNELS 3 Zrotation Xrotation Yrotation
                         End Site
                         {
                              OFFSET -0.08000 -0.13745 9.77979
                         }
                    }
               }
          }
     }
}
MOTION
Frames: 10
Frame Time: 0.01667
46.27667 96.57484 2.13194 8.72703 59.46782 -120.38113 5.05053 26.17713 -8.17802 0.00824 -0.00207 -0.00163 21.70353 11.27066 -30.42927 8.65846 10.19527 0.76644 -44.16233 25.74513 -78.18597 -1.41450 11.84379 -91.25384 22.43536 9.00775 1.99385 45.59445 7.17864 -8.47746 44.19521 -18.61942 9.77062 -25.80767 8.06561 26.34563 8.96431 9.60613 7.70870 60.86356 -1.49483 -20.95931 -25.35044 20.70466 70.07301 0.22666 -0.00100 -0.00362 -6.88622 -26.87886 -83.80788 -54.86380 -4.95308 1.30103 111.67519 8.50678 -85.19707 -29.40029 0.10290 -0.13412 -4.09005 33.01231 11.08265 
45.98794 96.54194 2.30556 8.14896 59.01996 -120.60371 6.25580 27.43622 -9.60274 0.08228 0.07069 -0.03448 19.36493 10.56418 -28.87104 7.11466 8.94731 1.90166 -44.48398 26.49082 -78.20759 -0.80929 11.10743 -91.00546 22.04073 9.37760 1.98129 44.28087 7.02787 -7.54013 43.51418 -18.76627 10.25092 -26.94876 5.76994 34.79797 16.95500 8.70451 -7.93190 59.96736 -0.91611 -23.03649 -26.46492 20.15514 72.52921 -0.35068 -0.00085 -0.00327 -6.35774 -28.03578 -83.34695 -49.87526 -0.89883 0.93704 111.80499 9.61156 -84.11233 -31.31718 0.09987 -0.08542 -3.92071 23.00751 7.85194 
45.64617 96.48888 2.57384 7.34033 58.47978 -120.70310 8.71496 28.71188 -11.97724 0.07768 0.07054 -0.02979 17.28399 9.72985 -28.47782 4.58605 7.66811 3.20524 -44.81403 27.13509 -78.22785 -0.16932 10.49620 -90.89273 21.57260 9.24752 1.84554 41.70387 6.90995 -6.19684 43.00596 -19.19253 10.87655 -27.21609 4.71041 40.07321 4.93430 9.52178 13.79303 58.95751 -0.18431 -25.03216 -27.54185 19.46675 74.87363 -0.86346 -0.00081 -0.00302 -5.85645 -29.13777 -82.95286 -44.74858 2.68399 -0.76328 111.17826 12.33755 -83.88327 -30.09182 0.05891 0.07553 -5.10382 21.00316 6.57456 
45.25718 96.39857 2.92689 5.73041 56.38869 -121.59660 8.63559 29.03191 -12.48629 -0.00975 -0.00362 0.00068 16.68044 9.60448 -29.63040 2.44595 7.23974 4.04940 -45.26064 27.50287 -78.15964 0.40905 9.96848 -90.84809 21.29560 9.50076 1.93191 39.43105 7.19506 -5.95721 43.48611 -22.86216 14.75041 -26.62419 6.81043 47.40007 16.82962 10.79348 -5.76609 56.30983 1.63157 -25.77073 -28.57610 18.63036 77.13356 -1.27504 -0.00097 -0.00292 -5.35967 -30.30245 -82.63217 -40.99880 4.37934 -2.89587 110.01978 16.41889 -84.43535 -30.02520 0.07090 0.03269 -5.47539 15.77495 4.88651 
44.82670 96.25769 3.33712 3.83651 53.02319 -123.48182 6.26731 28.79079 -11.22401 -0.01259 -0.00390 0.00152 17.52917 9.59413 -31.88703 0.77267 7.04512 4.63192 -45.74960 27.63003 -78.06458 0.89627 9.49667 -90.87953 20.99840 9.44122 1.89816 37.38313 7.45072 -5.78537 44.03570 -25.41996 17.33875 -24.86853 6.58495 56.89304 13.62991 11.86154 -5.47167 52.22004 4.09987 -25.16201 -29.56490 17.64454 79.33035 -1.56819 -0.00112 -0.00279 -4.86570 -31.60442 -82.38914 -38.34513 4.33564 -5.29397 108.51635 21.46674 -85.86879 -30.02090 0.07564 0.02317 -5.06672 12.47600 3.76807 
44.36014 96.04198 3.80554 2.21073 50.19929 -125.21804 5.49060 29.26141 -11.05432 0.05787 0.07763 -0.02502 18.71748 8.78124 -34.39075 -1.44290 6.05567 5.35716 -46.17954 27.56417 -77.92668 1.31256 9.07558 -91.06619 20.82978 9.58689 1.95391 35.15500 6.98355 -4.92518 44.15034 -27.21665 19.26042 -23.43209 7.15570 62.66051 20.68469 11.25586 -16.75620 48.43158 6.21564 -24.63288 -30.51473 16.52450 81.45326 -1.75795 -0.00100 -0.00236 -4.38678 -33.00357 -82.21013 -35.00474 4.19416 -8.45845 106.69222 27.28849 -88.05574 -30.02190 0.07767 0.01864 -4.55045 8.33590 2.68354 
43.85516 95.76144 4.33324 0.88539 47.81776 -126.87498 4.83428 29.55350 -10.89118 -0.01487 -0.00096 0.00323 20.11695 8.14958 -36.73992 -2.87157 5.60570 5.70251 -46.64208 27.24375 -77.74136 1.63658 8.70114 -91.35590 20.66683 9.53028 1.92802 33.54573 6.77451 -4.44823 44.50535 -28.60542 21.06570 -22.48445 8.10028 66.59846 9.02013 6.84346 4.62873 44.95277 8.00216 -24.13457 -31.40776 15.30072 83.46758 -1.87799 -0.00069 -0.00175 -3.94261 -34.37004 -82.06548 -31.04450 4.03113 -12.15483 102.43478 33.32183 -88.78994 -30.00182 -0.01577 -0.00044 -3.96690 6.49111 2.30543 
43.31681 95.44332 4.91221 -0.13166 45.77862 -128.50282 4.27539 29.67016 -10.69638 -0.01608 -0.00191 0.00235 21.45368 7.51708 -38.79126 4.65228 10.23722 -1.76378 -55.98933 19.23586 -76.76275 2.27954 8.51721 -92.04073 20.68050 9.58194 1.95618 32.40248 6.64580 -4.24337 44.94917 -29.69468 22.83611 -20.07538 7.91501 74.03479 20.46712 12.12784 -16.40851 41.79001 9.47144 -23.62774 -32.21339 14.01047 85.33011 -1.96537 -0.00036 -0.00122 -3.54908 -35.55512 -81.91930 -26.55223 4.00443 -16.04308 96.10827 39.47890 -87.59042 -29.85398 -0.00978 0.00092 -3.33672 5.32817 2.08135 
42.76855 95.09171 5.54072 -1.05879 43.89433 -130.15726 4.04186 29.98033 -10.72795 0.01273 0.02416 -0.01052 22.55699 6.61558 -40.49168 9.33735 12.42375 -6.51922 -61.80274 14.19713 -76.61593 2.99297 8.38324 -93.18428 20.73678 9.62666 2.02317 31.28955 6.34674 -3.92933 45.49859 -30.62795 24.71221 -17.85740 8.31841 80.67863 24.60422 11.96783 -23.55056 38.75062 10.74877 -23.05965 -32.95326 12.68629 87.10661 -2.04893 -0.00015 -0.00089 -3.16962 -36.64011 -81.76067 -22.06338 3.91980 -19.71714 88.55961 45.41048 -84.87552 -29.50428 -0.00043 0.00308 -2.68178 4.44059 1.94148 
42.20702 94.69508 6.20952 -1.88578 42.11264 -131.85498 4.11472 30.47788 -11.00867 0.01358 0.02604 -0.01140 23.48292 5.50056 -41.83426 11.82266 13.19654 -9.13764 -65.44376 11.06457 -76.56622 3.54575 8.22403 -94.44164 20.73717 9.64798 2.09969 30.09533 5.91216 -3.46947 47.34264 -32.31377 27.79191 -16.26596 10.46031 86.44101 24.12112 11.21188 -23.01853 35.83262 11.81196 -22.41434 -33.61579 11.33595 88.78201 -2.13440 -0.00006 -0.00080 -2.81954 -37.51954 -81.58254 -17.61580 3.91932 -23.03126 79.21391 50.75548 -80.02602 -28.85429 0.00267 0.00432 -2.03835 3.82807 1.83739 
